C:\Users\r0593348\3dpredictsim\Results\Batchsim_tmt_linear\Pog_s1_tmt_aCst_d00_k1000_ig24_pas_GRF.mot
nRows=25
nColumns=19

name C:\Users\r0593348\3dpredictsim\Results\Batchsim_tmt_linear\Pog_s1_tmt_aCst_d00_k1000_ig24_pas_GRF.mot
datacolumns 19
datarows 25
range 0.0000000000 0.2651714918
endheader
time 	ground_force_vx	ground_force_vy	ground_force_vz	ground_force_px	ground_force_py	ground_force_pz	1_ground_force_vx	1_ground_force_vy	1_ground_force_vz	1_ground_force_px	1_ground_force_py	1_ground_force_pz	ground_torque_x	ground_torque_y	ground_torque_z	1_ground_torque_x	1_ground_torque_y	1_ground_torque_z
        0.0000000000	     -100.8954526729	       93.2936632982	       42.5262503520	        0.1663738148	        0.0000000000	        0.0379442298	       93.7065152995	      470.3919833991	       -5.1423855352	       -0.3207731568	        0.0000000000	       -0.0353491526	        0.0000000000	        0.0000000000	        0.0000000000	        0.0000000000	        0.0000000000	        0.0000000000	
        0.0110488122	      -93.5197305420	      194.4339979928	       75.8851755543	        0.1727194359	        0.0000000000	        0.0362094081	       75.5402736591	      386.9834764444	      -10.2394488859	       -0.3166429922	        0.0000000000	       -0.0341210621	        0.0000000000	        0.0000000000	        0.0000000000	        0.0000000000	        0.0000000000	        0.0000000000	
        0.0220976243	      -47.4619565870	      352.9375158248	       17.2734984236	        0.1769367251	        0.0000000000	        0.0345309069	       55.2112335467	      299.7106592177	       -7.5129199915	       -0.3102534193	        0.0000000000	       -0.0316091802	        0.0000000000	        0.0000000000	        0.0000000000	        0.0000000000	        0.0000000000	        0.0000000000	
        0.0331464365	      -52.5543770093	      524.9198267673	       -2.3092640861	        0.1828909117	        0.0000000000	        0.0357302569	       26.7090748183	      198.3394292018	       -6.1398004761	       -0.2978483052	        0.0000000000	       -0.0260112159	        0.0000000000	        0.0000000000	        0.0000000000	        0.0000000000	        0.0000000000	        0.0000000000	
        0.0441952486	      -85.8778598821	      701.6008563852	       -9.6048690601	        0.1907977596	        0.0000000000	        0.0381331446	        7.3895061359	      138.1953856464	      -10.5667968934	       -0.2850774288	        0.0000000000	       -0.0194833213	        0.0000000000	        0.0000000000	        0.0000000000	        0.0000000000	        0.0000000000	        0.0000000000	
        0.0552440608	     -106.2528343084	      807.0513315990	      -12.7735492527	        0.1961873701	        0.0000000000	        0.0396560624	        1.2542540566	      108.4373317594	      -11.9120893624	       -0.2851367870	        0.0000000000	       -0.0197790494	        0.0000000000	        0.0000000000	        0.0000000000	        0.0000000000	        0.0000000000	        0.0000000000	
        0.0662928730	     -109.9835997065	      842.5376487161	      -13.5439309641	        0.1999002744	        0.0000000000	        0.0405627337	       -2.6371925843	       71.0744101733	      -11.0667479763	       -0.2846682951	        0.0000000000	       -0.0198424971	        0.0000000000	        0.0000000000	        0.0000000000	        0.0000000000	        0.0000000000	        0.0000000000	
        0.0773416851	     -104.9495159491	      837.3523284072	      -13.7436496375	        0.2029458754	        0.0000000000	        0.0410876719	       -8.4666051160	       29.5338118848	       -5.9361758920	       -0.2850057408	        0.0000000000	       -0.0196495698	        0.0000000000	        0.0000000000	        0.0000000000	        0.0000000000	        0.0000000000	        0.0000000000	
        0.0883904973	      -95.7351468869	      818.8582497401	      -14.0853714726	        0.2061185276	        0.0000000000	        0.0413454146	        0.1142921579	       -0.1138115713	        0.0033672728	        0.0000000000	        0.0000000000	        0.0000000000	        0.0000000000	        0.0000000000	        0.0000000000	        0.0000000000	        0.0000000000	        0.0000000000	
        0.0994393094	      -83.7363575291	      789.7205598368	      -14.8476297254	        0.2094172719	        0.0000000000	        0.0414492054	        0.0001586866	       -0.0001296847	       -0.0000084014	        0.0000000000	        0.0000000000	        0.0000000000	        0.0000000000	        0.0000000000	        0.0000000000	        0.0000000000	        0.0000000000	        0.0000000000	
        0.1104881216	      -72.7769134719	      757.0905360487	      -15.2593974210	        0.2132794615	        0.0000000000	        0.0414635522	        0.0000618265	       -0.0000439143	       -0.0000044380	        0.0000000000	        0.0000000000	        0.0000000000	        0.0000000000	        0.0000000000	        0.0000000000	        0.0000000000	        0.0000000000	        0.0000000000	
        0.1215369338	      -63.1906671131	      726.2670312768	      -15.4731282418	        0.2176763069	        0.0000000000	        0.0413713101	        0.0005736766	       -0.0003651202	       -0.0000464261	        0.0000000000	        0.0000000000	        0.0000000000	        0.0000000000	        0.0000000000	        0.0000000000	        0.0000000000	        0.0000000000	        0.0000000000	
        0.1325857459	      -53.6948659206	      695.4970256810	      -16.0212926880	        0.2220137241	        0.0000000000	        0.0412860660	        0.0057344745	       -0.0033437819	       -0.0004939817	        0.0000000000	        0.0000000000	        0.0000000000	        0.0000000000	        0.0000000000	        0.0000000000	        0.0000000000	        0.0000000000	        0.0000000000	
        0.1436345581	      -44.4058210617	      666.3409629072	      -16.5478947057	        0.2262377441	        0.0000000000	        0.0412629513	       -0.0291927890	        0.0158293743	        0.0026220683	        0.0000000000	        0.0000000000	        0.0000000000	        0.0000000000	        0.0000000000	        0.0000000000	        0.0000000000	        0.0000000000	        0.0000000000	
        0.1546833702	      -36.4429498412	      641.0656450007	      -17.0269981384	        0.2305504273	        0.0000000000	        0.0412906435	       -0.0201956217	        0.0102961961	        0.0018740022	        0.0000000000	        0.0000000000	        0.0000000000	        0.0000000000	        0.0000000000	        0.0000000000	        0.0000000000	        0.0000000000	        0.0000000000	
        0.1657321824	      -29.9072921789	      620.2749051733	      -17.6647381762	        0.2349038618	        0.0000000000	        0.0413421766	       -0.0140666781	        0.0068033931	        0.0013395444	        0.0000000000	        0.0000000000	        0.0000000000	        0.0000000000	        0.0000000000	        0.0000000000	        0.0000000000	        0.0000000000	        0.0000000000	
        0.1767809946	      -24.2690297024	      604.1556121988	      -18.1112920189	        0.2394940460	        0.0000000000	        0.0414018792	       -0.0126056142	        0.0058282920	        0.0012203184	        0.0000000000	        0.0000000000	        0.0000000000	        0.0000000000	        0.0000000000	        0.0000000000	        0.0000000000	        0.0000000000	        0.0000000000	
        0.1878298067	      -20.0091857520	      592.8768065233	      -18.2800461002	        0.2444818628	        0.0000000000	        0.0414418649	       -0.0150938933	        0.0067099178	        0.0014769580	        0.0000000000	        0.0000000000	        0.0000000000	        0.0000000000	        0.0000000000	        0.0000000000	        0.0000000000	        0.0000000000	        0.0000000000	
        0.1988786189	      -16.9605950529	      585.8181492641	      -18.1993826858	        0.2497871216	        0.0000000000	        0.0414410629	       -0.0233105169	        0.0100116448	        0.0022852220	        0.0000000000	        0.0000000000	        0.0000000000	        0.0000000000	        0.0000000000	        0.0000000000	        0.0000000000	        0.0000000000	        0.0000000000	
        0.2099274310	      -15.2716652110	      582.5276732502	      -18.1520679556	        0.2554056593	        0.0000000000	        0.0413845360	       -0.0433758830	        0.0180769037	        0.0042302294	        0.0000000000	        0.0000000000	        0.0000000000	        0.0000000000	        0.0000000000	        0.0000000000	        0.0000000000	        0.0000000000	        0.0000000000	
        0.2209762432	      -14.3817609038	      581.7227004547	      -18.0579282174	        0.2611854755	        0.0000000000	        0.0412788511	       -0.0895331659	        0.0363528285	        0.0086514098	        0.0000000000	        0.0000000000	        0.0000000000	        0.0000000000	        0.0000000000	        0.0000000000	        0.0000000000	        0.0000000000	        0.0000000000	
        0.2320250554	      -13.3815402957	      582.0994572587	      -18.0209050537	        0.2670666481	        0.0000000000	        0.0411330180	       -0.1890121771	        0.0750506905	        0.0180403811	        0.0000000000	        0.0000000000	        0.0000000000	        0.0000000000	        0.0000000000	        0.0000000000	        0.0000000000	        0.0000000000	        0.0000000000	
        0.2430738675	      -12.2565738578	      582.3741434157	      -17.8979116797	        0.2729572450	        0.0000000000	        0.0409611051	       -0.3798808197	        0.1480473596	        0.0357473525	        0.0000000000	        0.0000000000	        0.0000000000	        0.0000000000	        0.0000000000	        0.0000000000	        0.0000000000	        0.0000000000	        0.0000000000	
        0.2541226797	      -10.8767757807	      581.8284245960	      -17.6367832070	        0.2787721460	        0.0000000000	        0.0407770403	       -0.6865870261	        0.2635758752	        0.0635462826	        0.0000000000	        0.0000000000	        0.0000000000	        0.0000000000	        0.0000000000	        0.0000000000	        0.0000000000	        0.0000000000	        0.0000000000	
        0.2651714918	       -9.0931385114	      580.0453618892	      -17.3247326107	        0.2844969921	        0.0000000000	        0.0405872718	       -1.0797801266	        0.4096787945	        0.0979404034	        0.0000000000	        0.0000000000	        0.0000000000	        0.0000000000	        0.0000000000	        0.0000000000	        0.0000000000	        0.0000000000	        0.0000000000	
